<?xml version="1.0" encoding="UTF-8"?>
<svg id="Layer_1" data-name="Layer 1" xmlns="http://www.w3.org/2000/svg" viewBox="5 16 88 68">
  <defs>
    <style>
      .cls-1 {
        fill: #FFFFFF;
      }
    </style>
  </defs>
  <g>
    <g>
      <path class="cls-1" d="M42.7,61.75s.04-.05.04-.08c0-.03-.02-.06-.04-.08-.05-.03-.1-.08-.17-.13-.39-.29-1.09-.8-1.8-1.14.03-.31.13-.6.28-.87.31-.55.78-.83,1.03-.95.04-.02.06-.06.06-.1,0-.04-.03-.07-.07-.09-.5-.17-1.03-.21-1.54-.13h-.05c-.27.05-.78.12-1.24.51-.3.25-.55.54-.74.88-.21.37-.35.77-.4,1.2,0,.04.02.09.06.1s.09,0,.12-.03c.18-.22.51-.5.98-.62.96-.25,2.58.94,3.19,1.39.02.02.04.03.06.05-.56.36-1.17.61-1.83.74-.33.07-.95.19-1.72.05-.43-.08-1.43-.25-2.11-1.09-.86-1.05-.6-2.38-.54-2.63,0-.02,0-.04,0-.06.09-.22.14-.43.17-.63.26.1.54.17.82.19.09,0,.19.01.28.01.24,0,.48-.03.72-.09.31-.04,1.08-.21,1.65-.88.41-.48.55-1,.59-1.34,0-.03-.01-.07-.04-.09-.03-.02-.06-.03-.09-.02-.23.07-.46.11-.69.12-.17,0-.35,0-1.04-.1-.26-.04-.45-.07-.59-.1-.05-.35-.06-.7-.03-1.05.03-.38.1-.77.22-1.14,0-.03,0-.07-.02-.09-.02-.03-.05-.04-.09-.04-.42.03-1.21.17-1.89.79-.36.33-.56.64-.68.87-.12-.15-.23-.28-.32-.37-.49-.54-1.09-.97-1.76-1.28-.03-.01-.07-.01-.09,0-.03.02-.05.04-.05.08,0,.05-.02.12-.03.21-.06.48-.17,1.32-.11,2.09-.29.13-.59.19-.91.2-.64.01-1.13-.24-1.36-.4-.03-.02-.08-.02-.11,0-.03.02-.05.06-.04.1.1.5.33.98.65,1.36l.03.03c.17.21.49.6,1.07.8.37.13.76.19,1.15.19.44,0,.86-.09,1.26-.26.04-.02.07-.06.06-.1,0-.04-.04-.08-.08-.09-.29-.05-.7-.18-1.04-.51-.7-.68-.45-2.64-.36-3.38,0-.03,0-.05,0-.07.6.29,1.13.68,1.57,1.17.22.25.64.71.9,1.42.15.4.49,1.33.09,2.33-.5,1.25-1.81,1.69-2.07,1.77-.02,0-.04.02-.05.03-.23.04-.45.1-.65.18-.04-.27-.12-.54-.24-.79-.04-.08-.08-.16-.13-.24-.12-.2-.27-.39-.44-.56-.19-.24-.72-.8-1.61-.96-.63-.11-1.16.04-1.49.18-.03.01-.05.04-.06.07,0,.03,0,.07.03.09.17.16.33.33.46.53.09.14.18.29.43.92.09.24.16.41.21.55-.29.21-.59.4-.92.55-.36.17-.73.3-1.12.39-.03,0-.06.03-.07.06-.01.03,0,.07.01.09.23.33.76.94,1.65,1.2.47.14.85.16,1.11.14-.08.18-.13.33-.17.45-.24.69-.32,1.4-.25,2.13,0,.03.02.06.05.08.03.02.06.02.09,0,.05-.02.12-.05.2-.08.45-.19,1.25-.51,1.91-.95.26.18.47.41.63.67.33.53.35,1.07.33,1.35,0,.04.02.08.06.1.04.02.08.01.11-.01.4-.34.7-.76.89-1.23l.02-.04c.1-.25.29-.72.17-1.3-.07-.38-.21-.73-.41-1.06-.22-.36-.51-.68-.86-.94-.04-.03-.08-.03-.12,0-.04.03-.05.07-.04.11.1.26.19.68.07,1.14-.25.93-2.13,1.7-2.83,1.99-.02,0-.05.02-.07.03-.04-.65.04-1.29.26-1.91.11-.31.31-.9.81-1.47.28-.32.94-1.08,2.02-1.24,1.36-.21,2.41.68,2.61.86.02.01.03.02.05.02.15.18.31.33.48.46-.22.17-.42.37-.58.6-.05.07-.11.15-.15.23-.12.2-.22.42-.28.65-.12.28-.35,1.01-.05,1.83.22.59.61.96.9,1.17.03.02.06.03.1.01.03-.01.06-.04.06-.07.05-.23.13-.44.24-.65.07-.15.17-.3.61-.83.17-.2.29-.34.39-.45.33.13.65.3.95.5.33.22.63.47.9.75.02.02.06.03.09.03.03,0,.06-.03.08-.05.18-.36.45-1.11.24-1.99-.11-.47-.29-.79-.44-1.01.2-.02.36-.06.49-.08.73-.14,1.41-.43,2.02-.85ZM36.23,56.39c.09-.13.21-.24.34-.32.12-.07.32-.16.8-.17.18,0,.29,0,.48.04,0,0,0,0,0,0,0,.24-.06.6-.28.96-.3.48-.93.83-1.12.92.04-.6-.11-1.11-.22-1.44ZM31.93,61.6c-.17-.01-.32-.05-.46-.13-.12-.06-.31-.19-.55-.58-.1-.15-.14-.25-.2-.43,0,0,0,0,0,0,.22-.12.56-.25,1-.25.58,0,1.2.37,1.38.48-.55.27-.93.65-1.17.91ZM38.31,64.21s0,0,0,0c-.21-.12-.51-.35-.72-.72-.28-.49-.27-1.2-.26-1.4.51.33,1.05.46,1.39.53.07.15.11.3.12.45,0,.13-.02.35-.24.76-.09.16-.15.24-.28.39Z"/>
      <path class="cls-1" d="M33.14,64.32c.25.19.47.42.63.69.28.45.35.9.36,1.22.29-.29.51-.63.66-.99l.02-.04c.09-.23.26-.66.16-1.19-.07-.35-.2-.69-.39-1-.15-.25-.34-.48-.56-.68.06.26.07.59-.02.94-.11.39-.44.74-.86,1.05Z"/>
      <path class="cls-1" d="M40.53,60.24c.04-.31.14-.6.3-.88.26-.46.63-.75.91-.91-.4-.1-.81-.12-1.21-.06h-.05c-.25.05-.72.12-1.14.46-.28.23-.52.51-.69.82-.15.25-.25.53-.32.81.21-.18.48-.36.84-.45.4-.11.88,0,1.37.2Z"/>
      <path class="cls-1" d="M38.17,64.37c-.23-.14-.54-.38-.77-.78-.25-.45-.29-1.03-.29-1.35-.15.13-.28.27-.39.43-.18.25-.32.53-.4.82,0,0,0,0,0,.01-.11.26-.33.93-.05,1.69.17.46.46.78.71.98.05-.19.13-.37.22-.54.08-.16.18-.32.63-.86.15-.17.26-.31.35-.41Z"/>
      <path class="cls-1" d="M38.77,63.92c-.09.15-.15.24-.26.37.32.14.63.3.93.49.3.2.58.42.83.67.16-.37.34-1,.16-1.72-.12-.51-.32-.84-.47-1.03-.29.02-.63.02-1-.04.05.13.08.26.08.4,0,.16-.02.41-.27.86Z"/>
      <path class="cls-1" d="M33.21,56.05c-.3.12-.61.18-.93.19-.54,0-.98-.16-1.27-.31.11.39.3.75.55,1.05l.03.04c.16.19.46.55.98.73.35.12.71.18,1.08.17.3,0,.6-.05.88-.13-.26-.08-.56-.23-.82-.48-.3-.28-.44-.75-.5-1.25Z"/>
      <path class="cls-1" d="M37.75,57.01c-.27.44-.77.76-1.05.92.19.06.38.1.58.12.31.03.63,0,.93-.07,0,0,0,0,.01,0,.28-.04,1-.19,1.53-.81.33-.38.46-.78.52-1.09-.19.05-.39.08-.59.09-.18.01-.37,0-1.08-.1-.23-.04-.4-.07-.54-.09,0,.27-.07.65-.31,1.04Z"/>
      <path class="cls-1" d="M36.47,55.9c.14-.08.38-.19.9-.2.18,0,.29,0,.46.03-.04-.34-.05-.69-.02-1.03.03-.35.09-.7.18-1.04-.41.05-1.06.21-1.62.72-.39.36-.59.69-.68.91.16.23.33.52.46.87.09-.11.2-.2.32-.27Z"/>
      <path class="cls-1" d="M34.55,60.39c.76.04,1.39.36,1.78.62-.35-.66-.37-1.35-.34-1.81-.41.62-1.01.99-1.44,1.19Z"/>
      <path class="cls-1" d="M30.65,60.26c.24-.13.61-.27,1.08-.26.52,0,1.06.27,1.34.43-.04-.19-.1-.37-.19-.55-.13-.28-.31-.53-.53-.75,0,0,0,0,0,0-.17-.22-.67-.74-1.48-.89-.5-.09-.93,0-1.23.11.14.14.26.29.37.45.1.15.2.31.45.96.08.21.14.37.19.5Z"/>
      <path class="cls-1" d="M28.63,61.48c.25.32.72.78,1.45,1,.52.15.91.15,1.15.12.13-.25.3-.54.54-.82-.14-.02-.27-.07-.4-.13-.14-.07-.36-.22-.63-.66-.09-.15-.14-.25-.2-.4-.28.21-.59.38-.9.53-.32.15-.66.28-1.01.36Z"/>
    </g>
    <g>
      <path class="cls-1" d="M53.25,37.95c1.15,1.5,3.48,1.4,4.51-.17,1.86-2.84,2.57-6.26,1.82-9.33-1.23-5.07-5.65-8.44-11.91-8.57l-31.93-.06v13.24h4.55,0c-1.14-5.72,3.33-11.05,9.32-11.1l3.41-.03c.05,1.1.09,1.61.09,2.12,0,5.85.05,19.81-.03,25.66-.02,1.58.58,2.01,2.09,2.02,3.44.01,3.68-.15,3.68-3.48,0-5.91,0-19.93,0-26.37,4.39,0,5.82-.13,8.12.4,6.8,1.56,8.29,7.06,5.89,13.16-.33.84-.18,1.79.38,2.51h0Z"/>
      <path class="cls-1" d="M57.56,48.74c.44.63.89,1.25,1.35,1.87,1.32,1.78,2.75,3.48,4.2,5.15,1.38,1.59,2.75,3.25,4.37,4.62,1.3,1.1,2.97,2.22,4.7,2.48,1.83.28,3.8-.06,5.44-.87,3.03-1.5,4.6-4.53,4.21-8.14-.34-3.19-2.64-5.74-6.25-6.84.29.73.64,1.36.8,2.04.52,2.22-.69,4.28-2.88,5.02-2.14.72-4.48-.28-5.41-2.3-.92-2.01-.19-4.41,1.84-5.46.85-.44,1.88-.7,2.85-.75,5.26-.3,10.43,3.95,11.03,8.98.64,5.36-3.46,10.12-9.61,11.11-6.55,1.05-12.16-.75-16.21-5.89-4-5.08-7.11-10.76-10.77-16.07-.98-1.42-2-2.81-3.13-4.13-.54-.63-1.11-1.25-1.7-1.84-.29-.29-.59-.57-.9-.84-.13-.11-.93-.65-.93-.78v-6.64c1.98,1.84,3.88,3.76,5.75,5.71,2.32,2.41,4.6,4.87,6.72,7.45,1.63,1.98,3.06,4.07,4.54,6.15Z"/>
    </g>
  </g>
  <g>
    <path class="cls-1" d="M8.34,73.05v-1.27h5.31v1.27c-.56,0-1.1-.55-2-.76v7.9h-1.31v-7.9c-.9.2-1.44.76-2,.76Z"/>
    <path class="cls-1" d="M15.38,76.21v3.98h-1.31l-.02-8.41h3.1c1.24,0,2.24.99,2.24,2.21s-.98,2.19-2.19,2.21h-.5c1.15.64,2.69,1.9,2.69,3.98h-1.31c0-1.73-1.24-2.95-2.47-3.98h-.22ZM18.08,73.99c0-.98-.6-1.77-1.35-1.77h-1.35v3.54h1.35c.74,0,1.35-.79,1.35-1.77Z"/>
    <path class="cls-1" d="M21.34,71.78v5.83c0,1.18.79,2.14,1.77,2.14s1.77-.96,1.77-2.14c0-1.94-.85-3.89-.85-5.83h1.31v5.83c0,1.43-1.19,2.58-2.66,2.58s-2.66-1.16-2.66-2.58v-5.83h1.31Z"/>
    <path class="cls-1" d="M28.93,71.78c.9,0,1.42.18,1.97.67v1.27c-1.2-1.19-1.83-1.53-2.5-1.5-.85.03-1.13.75-1.09,1.5.14,2.26,4.01,1.39,4.01,4.05,0,1.34-1.36,2.42-3.05,2.42-.9,0-1.71-.31-2.26-.8v-1.27c1.2,1.19,2.12,1.64,2.79,1.63.86-.01,1.27-.75,1.21-1.51-.17-2.01-4-1.1-4-4.04,0-1.34,1.23-2.42,2.91-2.42Z"/>
    <path class="cls-1" d="M31.42,73.05v-1.27h5.31v1.27c-.56,0-1.1-.55-2-.76v7.9h-1.31v-7.9c-.9.2-1.44.76-2,.76Z"/>
    <path class="cls-1" d="M37.14,71.78h5v1.27c-1.18,0-2.51-.83-3.69-.83v3.54c.88,0,1.76-.83,2.63-.83v1.27h-2.63v3.16c1.25-.37,2.91-.84,3.69-.84v1.67c-1.8-.47-3.48-.4-5,0v-8.41Z"/>
    <path class="cls-1" d="M44.12,71.79c2.24.16,4,1.98,4,4.2s-1.76,4.03-4,4.2h-1.31s0-8.4,0-8.4h1.31ZM44.12,72.22v7.52c4,0,3.74-6.2,0-7.52Z"/>
    <path class="cls-1" d="M52.56,76.21v3.98h-1.31l-.02-8.41h3.1c1.24,0,2.24.99,2.24,2.21s-.98,2.19-2.19,2.21h-.5c1.15.64,2.69,1.9,2.69,3.98h-1.31c0-1.73-1.24-2.95-2.47-3.98h-.22ZM55.25,73.99c0-.98-.6-1.77-1.35-1.77h-1.35v3.54h1.35c.74,0,1.35-.79,1.35-1.77Z"/>
    <path class="cls-1" d="M57.38,72.22h-.01v-.45h2.01v8.41h-1.31v-7.3c0-.37-.31-.67-.69-.67Z"/>
    <path class="cls-1" d="M60.48,73.05v-1.27h5.31v1.27c-.56,0-1.1-.55-2-.76v7.9h-1.31v-7.9c-.9.2-1.44.76-2,.76Z"/>
    <path class="cls-1" d="M68.12,71.78v5.83c0,1.18.79,2.14,1.77,2.14s1.77-.96,1.77-2.14c0-1.94-.85-3.89-.85-5.83h1.31v5.83c0,1.43-1.19,2.58-2.66,2.58s-2.66-1.16-2.66-2.58v-5.83h1.31Z"/>
    <path class="cls-1" d="M77.75,80.19l-1.01-3.11h-2.17c-.36,1.04.11,2.07-.24,3.11h-1.31c.96-2.81,1.93-5.61,2.9-8.41h.48l2.73,8.41h-1.37ZM74.72,76.63h1.88l-.91-2.8-.96,2.8Z"/>
    <path class="cls-1" d="M81.75,71.78v7.59c1.25-.37,2.91-.84,3.69-.84v1.67c-1.8-.47-3.48-.4-5,0v-8.41h1.31Z"/>
    <path class="cls-1" d="M89.25,71.78c.9,0,1.42.18,1.97.67v1.27c-1.2-1.19-1.83-1.53-2.49-1.5-.85.03-1.13.75-1.09,1.5.14,2.26,4.01,1.39,4.01,4.05,0,1.34-1.36,2.42-3.05,2.42-.9,0-1.71-.31-2.26-.8v-1.27c1.2,1.19,2.12,1.64,2.79,1.63.86-.01,1.27-.75,1.21-1.51-.17-2.01-4-1.1-4-4.04,0-1.34,1.23-2.42,2.91-2.42Z"/>
  </g>
</svg>